<?xml version="1.0" encoding="UTF-8" standalone="no"?>
<!-- Created with Inkscape (http://www.inkscape.org/) -->

<svg
   width="174.87677mm"
   height="51.900955mm"
   viewBox="0 0 174.87677 51.900955"
   version="1.1"
   id="svg191"
   sodipodi:docname="rashellsmith.svg"
   inkscape:version="1.2.2 (732a01da63, 2022-12-09)"
   xmlns:inkscape="http://www.inkscape.org/namespaces/inkscape"
   xmlns:sodipodi="http://sodipodi.sourceforge.net/DTD/sodipodi-0.dtd"
   xmlns="http://www.w3.org/2000/svg"
   xmlns:svg="http://www.w3.org/2000/svg">
  <sodipodi:namedview
     id="namedview193"
     pagecolor="#505050"
     bordercolor="#eeeeee"
     borderopacity="1"
     inkscape:showpageshadow="0"
     inkscape:pageopacity="0"
     inkscape:pagecheckerboard="0"
     inkscape:deskcolor="#505050"
     inkscape:document-units="mm"
     showgrid="false"
     showguides="false"
     inkscape:zoom="0.75303054"
     inkscape:cx="342.61559"
     inkscape:cy="125.49292"
     inkscape:window-width="1920"
     inkscape:window-height="991"
     inkscape:window-x="-9"
     inkscape:window-y="-9"
     inkscape:window-maximized="1"
     inkscape:current-layer="g519" />
  <defs
     id="defs188" />
  <g
     inkscape:label="Layer 1"
     inkscape:groupmode="layer"
     id="layer1"
     transform="translate(-17.849986,-130.87851)">
    <g
       id="g519"
       transform="matrix(2.0656756,0,0,1.8789152,-130.9057,-84.375294)">
      <path
         id="path439"
         style="fill:#ffffff;fill-opacity:1;stroke:none;stroke-width:0.230949;stroke-miterlimit:4;stroke-dasharray:none;stroke-opacity:1"
         d="m 72.016905,133.25536 c -0.03608,0.48892 0.185868,1.14296 0.580094,1.67008 0.53925,0.72101 0.778425,0.72267 1.032389,0.007 0.109515,-0.30843 0.346474,-0.97623 0.526597,-1.48427 0.180121,-0.50801 0.533802,-1.30584 0.785936,-1.77292 0.252133,-0.46707 0.6351,-1.23937 0.851238,-1.71619 0.514653,-1.1354 1.197034,-1.81468 2.767801,-2.75536 1.579958,-0.94618 1.838088,-1.02227 1.955913,-0.57686 0.09641,0.36446 0.08822,0.42141 -0.398737,2.77674 -0.571247,2.76306 -1.370337,7.04177 -1.388107,7.43271 -0.02225,0.48992 0.217226,0.92377 0.700525,1.26887 0.428462,0.30594 0.842025,0.39452 0.951328,0.20373 0.03741,-0.0653 0.211335,-1.03964 0.38646,-2.16499 0.617839,-3.97028 1.83245,-10.01722 2.317666,-11.53871 0.21026,-0.65932 0.808012,-1.31603 2.556596,-2.80938 0.861966,-0.73616 1.854615,-1.60034 2.205836,-1.92018 0.351221,-0.31985 0.85831,-0.7347 1.126986,-0.92201 0.533047,-0.37161 0.622391,-0.71216 0.439879,-1.676 -0.10064,-0.53147 -0.24223,-0.68975 -0.64031,-0.71455 -0.154287,-0.01 -0.380902,-0.11162 -0.503675,-0.22676 -0.122773,-0.11517 -0.251754,-0.17813 -0.286439,-0.14021 -0.03468,0.038 -0.210652,-0.0344 -0.391201,-0.16083 -0.180551,-0.12634 -0.506316,-0.23958 -0.723723,-0.25153 -0.21741,-0.0119 -0.852771,-0.1348 -1.412064,-0.2731 -2.114571,-0.52278 -6.526902,-1.09826 -6.992006,-0.91202 -0.28164,0.11277 -0.54008,0.75048 -0.569908,1.40671 l -0.0269,0.59168 1.057658,-0.008 c 0.807725,-0.007 1.056105,0.0312 1.050209,0.16095 -0.01249,0.27386 -0.931038,2.46267 -2.055922,4.89862 -1.402476,3.03709 -1.723076,3.65557 -2.057332,3.97081 -0.166072,0.15662 -0.376611,0.59149 -0.507793,1.04855 -0.123249,0.42942 -0.382529,1.04976 -0.576143,1.37855 -0.19361,0.32879 -0.356267,0.69068 -0.361433,0.80435 -0.0052,0.11366 -0.09575,0.28505 -0.201411,0.38079 -0.105656,0.0957 -0.270732,0.37073 -0.366685,0.6113 -0.09596,0.24056 -0.521814,0.9893 -0.946536,1.66359 -0.424719,0.67429 -0.809783,1.37175 -0.855465,1.55018 -0.01594,0.0622 -0.02617,0.12891 -0.03133,0.19876 z m 6.434861,-8.36049 c -2.88e-4,-0.0539 0.01778,-0.1277 0.05186,-0.22076 0.269617,-0.73597 3.477311,-7.06276 3.76567,-7.42739 0.116775,-0.14766 0.338301,-0.21685 0.641309,-0.20021 0.921538,0.0506 4.343916,1.12214 4.576257,1.43279 0.129337,0.17292 -0.710501,0.95141 -2.635347,2.44238 -1.779443,1.37834 -2.024766,1.50136 -2.900732,1.45324 -0.666193,-0.0366 -0.669712,-0.0346 -0.687443,0.35547 -0.02603,0.57285 -0.456643,1.04774 -1.548971,1.70843 -0.912585,0.55197 -1.261394,0.6899 -1.262606,0.45605 z m 4.224624,6.52363 c -0.02195,0.82444 0.362848,1.38318 1.035311,1.45854 0.336981,0.0378 0.378922,-0.0136 0.918501,-1.12953 0.569965,-1.17878 0.855333,-1.51419 0.830882,-0.97627 -0.02963,0.65185 0.586733,1.64896 1.034553,1.67357 0.349308,0.0196 0.842648,-0.52433 2.209934,-2.43463 0.535014,-0.74748 1.080973,-1.49927 1.213116,-1.6707 l 0.240104,-0.31175 0.468031,0.6142 c 0.257428,0.33771 0.466446,0.6467 0.464484,0.68669 -0.002,0.04 -0.373356,0.2946 -0.825244,0.56572 -0.451887,0.27112 -1.072596,0.7075 -1.379387,0.96982 -0.478481,0.40913 -0.560765,0.54426 -0.579216,0.95017 -0.02448,0.53754 0.153604,1.09213 0.475698,1.48149 0.510837,0.61756 2.697456,0.0148 3.440111,-0.9483 0.330358,-0.42842 0.561978,-1.13778 0.593844,-1.81763 0.01142,-0.2447 0.07324,-0.54948 0.137243,-0.67732 0.122068,-0.24394 1.424343,-0.92643 1.606006,-0.84171 0.05796,0.0271 -0.255593,0.8465 -0.696949,1.82105 -0.441346,0.97456 -0.810347,1.92894 -0.820032,2.12078 -0.02689,0.53155 0.541206,1.48028 1.081843,1.80698 0.585177,0.35362 0.771085,0.28244 1.060438,-0.40576 0.29533,-0.70241 3.73425,-5.28114 3.846455,-5.12133 0.02697,0.0384 -0.360002,0.98767 -0.859848,2.1095 -1.424862,3.19786 -1.472064,3.63062 -0.504479,4.61817 0.262912,0.26834 0.517077,0.48994 0.564734,0.49256 0.04765,0.003 0.58078,-0.58844 1.184603,-1.31345 1.947354,-2.33819 2.212294,-2.57478 2.183904,-1.95003 -0.0204,0.44895 0.33623,0.9993 0.78059,1.2047 0.5555,0.25676 1.34833,-0.0199 2.64927,-0.92483 0.59585,-0.41445 1.16625,-0.74913 1.26766,-0.74355 0.10142,0.006 0.23391,0.16211 0.29428,0.34799 0.15154,0.46658 0.93756,1.19956 1.30841,1.21993 0.2351,0.0125 0.59443,-0.27961 1.54788,-1.26017 0.68296,-0.70236 1.26383,-1.27605 1.2908,-1.27458 0.027,0.001 0.003,0.34991 -0.0533,0.77419 -0.1022,0.77091 -0.10193,0.77189 0.32973,1.29283 0.60556,0.7308 0.88736,0.80427 1.41941,0.37044 0.78788,-0.64245 4.48481,-4.71101 4.79536,-5.27739 0.31939,-0.58254 0.32431,-0.95565 0.0126,-0.97278 -0.10123,-0.006 -1.04599,0.92172 -2.09951,2.06069 -1.0535,1.13896 -1.95014,2.0247 -1.99236,1.96826 -0.0422,-0.0565 0.0274,-0.38118 0.15479,-0.72152 0.12733,-0.34036 0.26688,-0.82349 0.31031,-1.07373 0.054,-0.31147 0.4051,-0.89548 1.11261,-1.85136 2.59968,-3.51221 5.75148,-8.93211 5.79874,-9.97169 0.0241,-0.5384 -1.08056,-1.7243 -1.63502,-1.75475 -0.20162,-0.0113 -1.41524,1.66776 -2.48443,3.43679 -0.43552,0.72061 -1.50207,2.78078 -2.36998,4.57818 -0.86789,1.79739 -1.71975,3.50754 -1.89303,3.80029 -0.52003,0.87859 -1.61704,2.22449 -2.37552,2.91432 -0.81161,0.73816 -0.91444,0.64682 -0.50125,-0.44528 0.14225,-0.37595 0.26389,-0.80201 0.27047,-0.94676 0.006,-0.14475 0.46696,-0.88781 1.02311,-1.65111 2.84144,-3.89984 5.80852,-9.07371 5.86061,-10.21971 0.0196,-0.42101 -0.40177,-0.95933 -1.12133,-1.43409 -0.5528,-0.36472 -0.55775,-0.36147 -1.54591,1.05126 -1.38893,1.98571 -2.43247,3.89348 -4.38285,8.0117 -2.23368,4.71637 -2.449,5.04176 -4.15357,6.27895 -1.15687,0.83968 -1.68574,1.09798 -1.83619,0.89682 -0.19936,-0.26656 0.43465,-0.88355 1.13818,-1.10755 1.49189,-0.47501 1.85533,-0.8471 2.18074,-2.23356 0.27964,-1.19143 0.63388,-1.97521 1.22338,-2.70665 l 0.47648,-0.59095 -0.27603,-0.38555 c -0.15183,-0.21203 -0.61574,-0.60866 -1.03074,-0.88137 l -0.75445,-0.49582 -0.67872,0.81941 c -0.91368,1.10297 -1.63763,2.15758 -2.44745,3.5655 -0.37128,0.64549 -0.94592,1.50375 -1.27697,1.90732 -0.76716,0.93521 -2.720992,2.73194 -2.764115,2.54187 -0.04041,-0.17775 0.896565,-1.97713 2.316825,-4.45003 0.75842,-1.32054 1.05454,-1.94268 1.01435,-2.13048 -0.0796,-0.37204 -0.64792,-0.91263 -1.20482,-1.14595 l -0.47096,-0.19715 -1.718904,1.84862 c -2.210412,2.37734 -2.694345,2.86445 -2.759534,2.77729 -0.02927,-0.0392 0.116792,-0.36008 0.324482,-0.71329 0.20768,-0.35321 0.465326,-0.90988 0.572708,-1.23692 0.107432,-0.32705 0.267946,-0.71008 0.3568,-0.85114 0.08886,-0.14106 0.166306,-0.3579 0.171951,-0.4821 0.0057,-0.1242 0.196581,-0.46931 0.424343,-0.76675 0.227783,-0.29744 0.417872,-0.62426 0.422508,-0.72608 0.005,-0.10177 0.164716,-0.27162 0.355805,-0.37754 0.344758,-0.19112 0.639621,-0.74067 0.559089,-1.04189 -0.02303,-0.0864 0.04344,-0.21473 0.14772,-0.28543 0.104249,-0.0707 0.453952,-0.65247 0.777152,-1.29287 0.3232,-0.6404 0.85226,-1.51202 1.17587,-1.93684 0.68394,-0.89778 1.54677,-2.39274 1.56094,-2.70463 0.015,-0.33298 -1.21064,-1.5161 -1.59256,-1.53708 -0.0632,-0.003 -0.20085,0.20914 -0.30576,0.47227 -0.10492,0.26312 -0.68164,1.36631 -1.28169,2.45176 -0.600043,1.08544 -1.871517,3.44401 -2.825445,5.24132 l -1.734322,3.26789 -1.527642,0.55026 c -0.840151,0.30254 -1.556134,0.55077 -1.591065,0.55147 -0.111676,0.003 -0.946952,-1.00321 -1.046806,-1.26062 -0.163113,-0.42051 0.327268,-0.91623 1.482845,-1.4992 0.584499,-0.29488 1.110871,-0.51368 1.169804,-0.48622 0.05895,0.0275 -0.106669,0.37111 -0.367848,0.76352 -0.261173,0.3924 -0.4784,0.75848 -0.482838,0.81365 -0.0044,0.0552 0.29084,-0.14527 0.656463,-0.44529 0.365623,-0.30004 0.859502,-0.69941 1.097624,-0.88783 0.558063,-0.44157 0.601082,-0.92237 0.14473,-1.61925 -0.435556,-0.66513 -0.684243,-0.72756 -1.504493,-0.37759 -1.439744,0.61431 -2.68767,1.75124 -3.650115,3.32567 -0.597962,0.97818 -2.387644,3.14174 -2.490344,3.01047 -0.03382,-0.0433 0.292168,-0.69132 0.724471,-1.44008 1.130074,-1.95731 1.146715,-2.10045 0.325378,-2.7995 l -0.506405,-0.43125 0.469223,0.026 c 0.852812,0.0468 0.713866,-0.67202 -0.242727,-1.25611 -0.449983,-0.27476 -0.494973,-0.27904 -0.967993,-0.0906 -1.326123,0.52818 -4.10711,4.98181 -4.441707,7.11319 -0.02009,0.12799 -0.03142,0.25126 -0.03456,0.36905 z m 3.183315,-3.55372 c 0.0032,-0.0133 0.01064,-0.0312 0.02275,-0.0543 0.06192,-0.1182 0.421101,-0.59634 0.798221,-1.06233 0.813293,-1.00494 1.288358,-1.17159 0.53275,-0.1869 -0.483922,0.63064 -1.400819,1.5022 -1.353732,1.30361 z m 19.096305,2.04986 c 0.002,-0.10599 0.0977,-0.36504 0.28683,-0.74455 0.36129,-0.72477 0.59204,-0.97885 0.57638,-0.63447 -0.009,0.1954 -0.36775,0.93338 -0.58631,1.20561 -0.18663,0.23245 -0.27875,0.27945 -0.2769,0.17341 z m 6.8162,-4.96286 c 0.0165,-0.48487 1.76586,-3.22541 2.13882,-3.35004 0.10581,-0.0354 0.081,0.0669 -0.0783,0.32202 -0.12829,0.20559 -0.53961,0.87144 -0.91413,1.47977 -0.90234,1.46564 -1.15506,1.80695 -1.14644,1.54825 z m 2.81371,13.95123 c -0.0268,0.59601 0.81619,2.9144 1.12174,3.08387 0.43006,0.23853 2.26773,0.26877 3.3927,0.0559 1.55145,-0.29361 2.24025,-0.569 3.74485,-1.49718 2.41659,-1.4908 3.8792,-2.6099 4.45803,-3.41125 0.62856,-0.87022 1.39332,-2.41016 1.70339,-3.43014 0.36145,-1.18902 0.60327,-1.7048 0.83482,-1.77961 0.32752,-0.1058 0.35507,0.0283 0.12754,0.62164 -0.11347,0.29588 -0.18333,0.68081 -0.15534,0.85533 0.10672,0.66554 1.05602,1.5348 1.38151,1.26498 0.0636,-0.0527 0.24659,-0.39142 0.40666,-0.75257 0.61627,-1.3904 2.83697,-5.15781 3.03382,-5.147 0.12912,0.007 0.068,0.17717 -0.74806,2.08564 l -0.63591,1.48653 0.2355,0.64381 c 0.28018,0.76624 0.58675,1.16933 0.81848,1.07654 0.0927,-0.0371 0.29022,-0.29999 0.43909,-0.58419 0.32821,-0.62656 0.83112,-1.29348 0.96944,-1.28589 0.0556,0.003 0.0748,0.58008 0.0429,1.2823 -0.0575,1.26524 -0.0546,1.2813 0.29734,1.79582 l 0.35538,0.51934 0.25022,-0.31973 c 0.13766,-0.17588 0.49761,-0.65491 0.79983,-1.06446 l 0.54934,-0.74473 0.17046,0.38279 c 0.0938,0.21054 0.42064,0.68323 0.72625,1.05025 0.843,1.01242 0.9626,0.98031 2.39805,-0.64399 0.65477,-0.74091 1.23027,-1.34482 1.27909,-1.34214 0.0487,0.003 -0.083,0.49116 -0.29307,1.08569 -0.53154,1.50468 -0.52826,1.82576 0.0255,2.45886 0.81499,0.93176 1.19906,0.86735 2.06521,-0.34724 l 0.55699,-0.78094 0.59097,0.7534 c 0.59811,0.76238 1.13585,1.22477 1.44417,1.24172 0.0942,0.005 0.30643,-0.2955 0.48001,-0.67997 0.53457,-1.18412 3.62321,-5.48662 3.78602,-5.27393 0.0296,0.0386 -0.33937,0.98634 -0.81986,2.10592 -1.35055,3.14686 -1.40927,3.77419 -0.4445,4.75888 0.5527,0.56412 0.52462,0.57529 1.49918,-0.59644 0.35309,-0.42454 1.65909,-1.90285 2.90208,-3.28498 2.22999,-2.47959 2.62497,-3.07052 2.07264,-3.10087 -0.26716,-0.0147 -0.90032,0.51092 -2.7045,2.24471 -0.78058,0.75012 -1.64322,1.55521 -1.91685,1.78929 -0.49703,0.4252 -0.76624,0.43472 -0.49323,0.0173 0.0795,-0.12157 0.36674,-0.67806 0.63808,-1.23664 0.27134,-0.55857 0.90249,-1.67188 1.40266,-2.47375 0.50017,-0.80188 1.02039,-1.68963 1.15596,-1.9729 0.24386,-0.50951 0.24436,-0.51895 0.048,-0.87719 -0.25671,-0.46869 -1.03559,-1.05409 -1.29095,-0.9703 -0.22391,0.0734 -1.3383,1.12548 -3.36139,3.17299 -0.75477,0.76388 -1.38663,1.32605 -1.4041,1.24907 -0.0174,-0.077 0.18756,-0.50696 0.45573,-0.95558 0.26817,-0.44862 0.49169,-0.90377 0.49658,-1.01144 0.0114,-0.24691 0.41292,-1.11314 1.04887,-2.26159 0.13337,-0.24087 0.43707,-0.65251 0.67504,-0.91488 0.23797,-0.2624 0.71715,-1.08781 1.06475,-1.83417 0.3476,-0.74638 1.02366,-1.91264 1.50246,-2.59165 1.06232,-1.50653 1.61908,-2.44102 1.63271,-2.74089 0.009,-0.21359 -0.83187,-1.17077 -1.34254,-1.52692 -0.21782,-0.15191 -0.2633,-0.10687 -0.59839,0.58948 -0.40794,0.84762 -3.00961,5.51831 -3.17464,5.69936 -0.0642,0.0704 -0.0722,-0.0731 -0.0202,-0.36047 l 0.0863,-0.47744 -0.50475,-0.12031 c -0.27772,-0.0661 -0.55238,-0.19679 -0.61024,-0.29045 -0.14929,-0.2416 0.41012,-1.15158 1.42918,-2.32441 0.56306,-0.64803 0.8136,-1.0278 0.77449,-1.17408 -0.0533,-0.19907 -0.8376,-0.9605 -1.3969,-1.35613 -0.31782,-0.22483 -0.58137,-0.2259 -0.59152,-0.002 -0.0138,0.29262 -1.91651,3.64715 -2.2527,3.97053 -0.22978,0.22101 -0.38189,0.26799 -0.61836,0.19129 -0.17251,-0.0559 -0.41177,-0.0698 -0.53159,-0.0314 -0.26422,0.0853 -0.61237,0.94659 -0.64147,1.58672 -0.0172,0.37275 0.0224,0.46938 0.19441,0.47883 0.37062,0.0204 0.35216,0.2505 -0.10943,1.37087 -1.04141,2.52778 -2.05909,4.14123 -4.0441,6.41136 -1.15668,1.32282 -1.51528,1.5397 -1.16365,0.70355 0.11404,-0.27119 0.24098,-0.69864 0.28188,-0.94972 0.0458,-0.28126 0.1981,-0.57026 0.39692,-0.7531 0.17747,-0.1632 0.53399,-0.73489 0.7924,-1.27029 l 0.46981,-0.97351 -0.25913,-0.37169 c -0.25191,-0.36126 -0.95198,-0.92194 -1.16588,-0.93369 -0.0582,-0.003 -0.30273,0.37194 -0.54335,0.83346 -0.58348,1.11908 -1.69824,2.72253 -2.43639,3.50442 -0.32954,0.34906 -0.59777,0.60345 -0.59604,0.56537 0.007,-0.15082 0.88544,-2.74071 1.02302,-3.01562 0.18804,-0.3758 -0.0374,-0.74857 -0.69588,-1.15075 -0.52832,-0.32267 -0.62769,-0.29326 -0.73858,0.21855 -0.0439,0.2026 -0.3487,0.65622 -0.67753,1.0081 l -0.59791,0.63962 0.20904,-0.5266 c 0.35515,-0.89484 0.87351,-1.93773 1.32053,-2.65616 0.23523,-0.37805 0.40412,-0.77601 0.37509,-0.88454 -0.0719,-0.26897 -0.70175,-0.77657 -0.9827,-0.79201 -0.15227,-0.008 -0.63977,0.49342 -1.45894,1.50217 -0.67658,0.83315 -1.31568,1.59256 -1.42027,1.6874 -0.29478,0.26731 -0.23185,-0.0912 0.12579,-0.7176 0.42533,-0.74486 0.4104,-1.05618 -0.0699,-1.45948 -0.22112,-0.18567 -0.56505,-0.41554 -0.76428,-0.51097 l -0.36233,-0.17356 -0.56101,1.27722 c -1.23418,2.81027 -1.15279,2.66881 -1.67616,2.91392 -0.26776,0.1254 -0.63011,0.25152 -0.80526,0.28043 -0.30312,0.0501 -0.33435,0.003 -0.6506,-0.97863 -0.58543,-1.8171 -1.77908,-2.97675 -3.66116,-3.5566 -0.46255,-0.14252 -0.94302,-0.26469 -1.06772,-0.27154 -0.35072,-0.0197 -0.27083,-0.18309 0.46239,-0.94806 1.02949,-1.07401 2.59376,-1.81005 4.15056,-1.95294 1.04625,-0.096 1.39199,0.0573 2.07568,0.92117 0.66008,0.83409 0.86258,0.93641 0.97968,0.49443 0.16999,-0.64155 -0.71691,-3.28242 -1.26371,-3.76279 -0.61833,-0.54323 -2.68806,-0.45982 -4.16935,0.16803 -1.09634,0.4647 -3.09054,2.07732 -3.77288,3.05098 -0.65083,0.92868 -0.57942,3.01447 0.1344,3.92599 0.40136,0.51253 0.97095,0.76719 1.8316,0.81881 0.79072,0.0478 1.95391,0.41638 2.49809,0.79237 0.42125,0.29105 0.98021,1.03959 0.96852,1.2968 -0.0143,0.30979 -0.6918,0.77741 -1.70722,1.17818 -5.83119,2.30142 -9.33173,4.19635 -11.1132,6.01583 -0.44225,0.45169 -0.55851,0.65473 -0.57438,1.00386 z m 1.29854,-13.87704 c 0.0137,-0.29138 1.30404,-2.47425 1.85487,-3.1368 0.3166,-0.38082 0.47159,-0.49132 0.50402,-0.35948 0.0258,0.10467 -0.0623,0.2816 -0.19546,0.39295 -0.13321,0.11136 -0.38443,0.48985 -0.55822,0.84118 -0.17379,0.35133 -0.56361,0.99591 -0.8664,1.43228 -0.73051,1.05283 -0.74992,1.07429 -0.73881,0.82987 z m 0.71882,14.22414 c -0.008,-0.24739 0.30272,-0.60813 0.99412,-1.162 1.62107,-1.29864 3.8376,-2.62272 5.51141,-3.29225 0.53627,-0.21451 1.62233,-0.69428 2.41349,-1.06611 0.79114,-0.37184 1.49356,-0.67303 1.56085,-0.66933 0.2816,0.0152 0.0541,0.37522 -0.85716,1.35596 -1.79581,1.93249 -5.63606,4.41433 -7.58723,4.90343 -0.94855,0.23776 -1.91194,0.25192 -2.01269,0.0296 -0.014,-0.0309 -0.0216,-0.0639 -0.0228,-0.0994 z m 24.68818,-11.98399 c -0.004,0.2051 0.10149,0.37102 0.31364,0.59442 0.18986,0.19996 0.41036,0.36782 0.49,0.37307 0.0796,0.005 0.27496,-0.30113 0.43423,-0.68083 0.37334,-0.89003 1.12182,-3.26482 1.08295,-3.43614 -0.041,-0.18098 -1.55163,1.58773 -1.98181,2.3205 -0.2229,0.37966 -0.33535,0.62387 -0.33901,0.82898 z m 2.89989,6.84767 c 0.0214,-0.22187 0.18246,-0.70227 0.46193,-1.45587 0.58447,-1.57598 1.23269,-3.15803 1.63518,-3.9907 0.65578,-1.35667 1.19005,-2.37433 1.52716,-2.90916 0.33785,-0.53609 0.36569,-0.55132 0.92518,-0.50516 0.31725,0.0263 0.71665,0.0937 0.88765,0.14983 l 0.31098,0.10178 -0.5781,1.17908 c -1.46233,2.98159 -2.49402,4.63922 -4.01592,6.45284 -0.838,0.9986 -1.18988,1.347 -1.15405,0.97724 z" />
    </g>
  </g>
</svg>
